<svg xmlns="http://www.w3.org/2000/svg" viewBox="0 0 680 121"><defs><style>.cls-1{fill:#ffdb4d;}.cls-2{fill:#333;}.cls-3{fill:none;stroke:#333;stroke-miterlimit:10;stroke-width:0.97px;}</style></defs><title>01190716</title><g id="Layer_1" data-name="Layer 1"><rect class="cls-1" x="260" y="42" width="140" height="40" rx="2"/><path class="cls-2" d="M289.72,67.63a6,6,0,0,1-2.16-.39,4.87,4.87,0,0,1-1.74-1.14,5.39,5.39,0,0,1-1.16-1.86,7.89,7.89,0,0,1,0-5.08,5,5,0,0,1,1.16-1.82,4.8,4.8,0,0,1,1.74-1.11,6.55,6.55,0,0,1,4.34,0,4.8,4.8,0,0,1,1.74,1.11,5.21,5.21,0,0,1,1.16,1.84,7.26,7.26,0,0,1,.41,2.53,7.34,7.34,0,0,1-.41,2.53,5.39,5.39,0,0,1-1.16,1.86,4.87,4.87,0,0,1-1.74,1.14A6,6,0,0,1,289.72,67.63Zm0-1.36a4.48,4.48,0,0,0,1.54-.25,3,3,0,0,0,1.22-.78,3.68,3.68,0,0,0,.82-1.4,7.47,7.47,0,0,0,0-4.19,3.68,3.68,0,0,0-.82-1.4,3.1,3.1,0,0,0-1.22-.79,5,5,0,0,0-3.07,0,3.21,3.21,0,0,0-1.23.79,3.8,3.8,0,0,0-.81,1.4,7.47,7.47,0,0,0,0,4.19,3.8,3.8,0,0,0,.81,1.4,3.08,3.08,0,0,0,1.23.78A4.47,4.47,0,0,0,289.72,66.27Z"/><path class="cls-2" d="M304.52,63.31a5,5,0,0,1-.31,1.84,4,4,0,0,1-.84,1.35,3.56,3.56,0,0,1-1.28.84,4.18,4.18,0,0,1-1.6.29,4.43,4.43,0,0,1-1.61-.29,3.27,3.27,0,0,1-1.27-.91,4.37,4.37,0,0,1-.82-1.53,7.18,7.18,0,0,1-.3-2.2c0-.69,0-1.35.07-2a9.28,9.28,0,0,1,.28-1.75,5.24,5.24,0,0,1,.65-1.46,3.62,3.62,0,0,1,1.15-1.08,3.21,3.21,0,0,1,.83-.36,6.72,6.72,0,0,1,.87-.18,6.54,6.54,0,0,1,.89-.08l.88,0a7.69,7.69,0,0,0,1.07-.16,3.35,3.35,0,0,0,.77-.31v1.28a2.38,2.38,0,0,1-.74.31c-.27.06-.58.11-1,.16l-1.67.12a3.14,3.14,0,0,0-1.38.36,2.4,2.4,0,0,0-1.13,1.33,7.38,7.38,0,0,0-.41,2.11,3.11,3.11,0,0,1,3.14-1.92,3.72,3.72,0,0,1,1.46.28,3.22,3.22,0,0,1,1.18.82,4,4,0,0,1,.8,1.34A5.29,5.29,0,0,1,304.52,63.31Zm-4,3.07a2.82,2.82,0,0,0,1-.18,2.22,2.22,0,0,0,.83-.56,2.62,2.62,0,0,0,.54-1,5,5,0,0,0,0-2.72,2.62,2.62,0,0,0-.54-1,2.22,2.22,0,0,0-.83-.56,2.82,2.82,0,0,0-1-.18,2.48,2.48,0,0,0-1.83.73,3.14,3.14,0,0,0-.73,2.28,4.72,4.72,0,0,0,.19,1.39,2.75,2.75,0,0,0,.54,1,2.07,2.07,0,0,0,.81.57A2.8,2.8,0,0,0,300.49,66.38Z"/><path class="cls-2" d="M310.46,67.63a3,3,0,0,1-1.66-.45A3.31,3.31,0,0,1,307.69,66V70.3h-1.4V59.17h1.23l.14,1.61a3.43,3.43,0,0,1,1.12-1.29,3,3,0,0,1,1.74-.48,3.85,3.85,0,0,1,1.39.26,3.3,3.3,0,0,1,1.17.8,4.06,4.06,0,0,1,.8,1.35,5.65,5.65,0,0,1,.29,1.89,5.43,5.43,0,0,1-.3,1.91,3.94,3.94,0,0,1-.82,1.35,3.38,3.38,0,0,1-1.18.8A4,4,0,0,1,310.46,67.63Zm-.21-1.25a2.29,2.29,0,0,0,1.79-.76A4.21,4.21,0,0,0,312,61a2.29,2.29,0,0,0-1.79-.77,2.59,2.59,0,0,0-1,.19,2.25,2.25,0,0,0-.82.57,2.66,2.66,0,0,0-.54.95,4.66,4.66,0,0,0,0,2.7,2.79,2.79,0,0,0,.54,1,2,2,0,0,0,.82.57A2.79,2.79,0,0,0,310.25,66.38Z"/><path class="cls-2" d="M320.67,65.89a5.16,5.16,0,0,1-.37.6,3,3,0,0,1-.56.57,2.68,2.68,0,0,1-.79.41,3.17,3.17,0,0,1-1.07.16,2.57,2.57,0,0,1-1.8-.63,2.34,2.34,0,0,1-.69-1.82,2.26,2.26,0,0,1,.95-2,4.89,4.89,0,0,1,2.71-.64h1.55v-.68a1.52,1.52,0,0,0-.44-1.24,2.51,2.51,0,0,0-1.54-.36,4.43,4.43,0,0,0-1.46.24,8.27,8.27,0,0,0-1.23.57V59.81a6.77,6.77,0,0,1,1.21-.54,5.22,5.22,0,0,1,1.67-.26,3.74,3.74,0,0,1,2.39.65,2.41,2.41,0,0,1,.81,2v4.47c0,.09,0,.2,0,.33s0,.24,0,.37,0,.25,0,.36,0,.21,0,.28h-1.28q0-.23-.09-.63c0-.27,0-.51,0-.71Zm-2.48.49a2.19,2.19,0,0,0,1.12-.27,2.49,2.49,0,0,0,.75-.64,2.76,2.76,0,0,0,.42-.7,1.82,1.82,0,0,0,.12-.49v-.62h-1.4a3.45,3.45,0,0,0-1.84.37,1.21,1.21,0,0,0-.56,1.08,1.3,1.3,0,0,0,.33.92A1.4,1.4,0,0,0,318.19,66.38Z"/><path class="cls-2" d="M331.71,63.31a5.21,5.21,0,0,1-.31,1.84,3.84,3.84,0,0,1-.85,1.35,3.53,3.53,0,0,1-1.27.84,4.21,4.21,0,0,1-1.6.29,4.45,4.45,0,0,1-1.62-.29,3.24,3.24,0,0,1-1.26-.91A4.23,4.23,0,0,1,324,64.9a7.2,7.2,0,0,1-.29-2.2q0-1,.06-2A8.53,8.53,0,0,1,324,59a5,5,0,0,1,.65-1.46,3.48,3.48,0,0,1,1.14-1.08,3.37,3.37,0,0,1,.83-.36,7.79,7.79,0,0,1,1.76-.26l.88,0a7.46,7.46,0,0,0,1.07-.16,3.17,3.17,0,0,0,.77-.31v1.28a2.29,2.29,0,0,1-.74.31c-.26.06-.58.11-.95.16l-1.68.12a3.21,3.21,0,0,0-1.38.36,2.44,2.44,0,0,0-1.13,1.33,7.74,7.74,0,0,0-.41,2.11A3.11,3.11,0,0,1,328,59.06a3.72,3.72,0,0,1,1.46.28,3.26,3.26,0,0,1,1.19.82,3.93,3.93,0,0,1,.79,1.34A5.29,5.29,0,0,1,331.71,63.31Zm-4,3.07a2.9,2.9,0,0,0,1-.18,2.18,2.18,0,0,0,.82-.56,2.5,2.5,0,0,0,.55-1,5,5,0,0,0,0-2.72,2.5,2.5,0,0,0-.55-1,2.18,2.18,0,0,0-.82-.56,2.9,2.9,0,0,0-1-.18,2.49,2.49,0,0,0-1.84.73,3.18,3.18,0,0,0-.72,2.28,4.41,4.41,0,0,0,.19,1.39,2.9,2.9,0,0,0,.53,1,2.07,2.07,0,0,0,.81.57A2.82,2.82,0,0,0,327.68,66.38Z"/><path class="cls-2" d="M336.88,67.63a4.16,4.16,0,0,1-1.59-.29A3.53,3.53,0,0,1,334,66.5a3.69,3.69,0,0,1-.84-1.35,5.76,5.76,0,0,1,0-3.67,3.69,3.69,0,0,1,.84-1.35,3.63,3.63,0,0,1,1.27-.83,4.16,4.16,0,0,1,1.59-.29,4.21,4.21,0,0,1,1.6.29,3.63,3.63,0,0,1,1.27.83,3.84,3.84,0,0,1,.85,1.35,5.59,5.59,0,0,1,0,3.67,3.84,3.84,0,0,1-.85,1.35,3.53,3.53,0,0,1-1.27.84A4.21,4.21,0,0,1,336.88,67.63Zm0-1.25a2.9,2.9,0,0,0,1-.18,2.18,2.18,0,0,0,.82-.56,2.5,2.5,0,0,0,.55-1,5,5,0,0,0,0-2.72,2.5,2.5,0,0,0-.55-1,2.18,2.18,0,0,0-.82-.56,2.9,2.9,0,0,0-1-.18,2.82,2.82,0,0,0-1,.18A2.15,2.15,0,0,0,335,61a2.61,2.61,0,0,0-.53,1,5,5,0,0,0,0,2.72,2.61,2.61,0,0,0,.53,1,2.15,2.15,0,0,0,.81.56A2.82,2.82,0,0,0,336.88,66.38Z"/><path class="cls-2" d="M345.72,60.37v7.1h-1.4v-7.1h-2.61v-1.2h6.67v1.2Z"/><path class="cls-2" d="M356.45,67.47H355V63.82a3.07,3.07,0,0,1-1,.52,4,4,0,0,1-1.29.19,3,3,0,0,1-2.15-.7,2.91,2.91,0,0,1-.75-2.23V59.17h1.43v2.45a1.72,1.72,0,0,0,.45,1.36,1.9,1.9,0,0,0,1.26.38,3.64,3.64,0,0,0,1.09-.16,2.94,2.94,0,0,0,1-.5V59.17h1.41Z"/><path class="cls-2" d="M360.16,65.55l4.43-6.38H366v8.3H364.6V61.1l-4.41,6.37h-1.44v-8.3h1.41Z"/><path class="cls-2" d="M370.46,63.94h-.74v3.53h-1.4v-8.3h1.4v3.57h.8l2.92-3.57H375l-3.41,4.09,3.47,4.21h-1.71Z"/><line class="cls-3" x1="400" y1="62.5" x2="519.5" y2="62.5"/><path class="cls-2" d="M400,64.69a2.19,2.19,0,1,1,2.19-2.19A2.19,2.19,0,0,1,400,64.69Z"/><polygon class="cls-2" points="518.51 65.89 524.37 62.5 518.51 59.11 518.51 65.89"/><path class="cls-2" d="M432.91,51h1.47v4.08H433l-.16-2.72h-8.24l-.18,2.72h-1.36V51h.78a3.44,3.44,0,0,0,.88-1.34,10.14,10.14,0,0,0,.5-2.07c.12-.82.2-1.79.26-2.9s.09-2.38.12-3.8h7.32Zm-1.52,0V42.22H427c0,1.22-.08,2.3-.13,3.24s-.15,1.75-.26,2.46a10.92,10.92,0,0,1-.42,1.8,4.77,4.77,0,0,1-.61,1.26Z"/><path class="cls-2" d="M442.7,51.64l-.43.27a4.85,4.85,0,0,1-.63.28,5.23,5.23,0,0,1-.83.22,5.52,5.52,0,0,1-1,.09,4.18,4.18,0,0,1-3.18-1.14,4.4,4.4,0,0,1-1.09-3.18,5.33,5.33,0,0,1,.29-1.81,3.9,3.9,0,0,1,.83-1.35,3.6,3.6,0,0,1,1.25-.85,4,4,0,0,1,1.56-.3,3.84,3.84,0,0,1,1.6.31,2.85,2.85,0,0,1,1.16.89,3.39,3.39,0,0,1,.63,1.47,6,6,0,0,1,0,2H437a2.89,2.89,0,0,0,.8,2,3,3,0,0,0,2.15.67,4.53,4.53,0,0,0,1.65-.27,6.78,6.78,0,0,0,1.15-.6Zm-3.3-6.52a2.36,2.36,0,0,0-1.57.56,2.72,2.72,0,0,0-.83,1.7h4.47a2.1,2.1,0,0,0-.53-1.71A2.17,2.17,0,0,0,439.4,45.12Z"/><path class="cls-2" d="M446.11,50.42,450.54,44H452v8.31h-1.41V46l-4.41,6.37H444.7V44h1.41Zm2.25-7.49a3.41,3.41,0,0,1-1.11-.17,2.21,2.21,0,0,1-.78-.46,1.89,1.89,0,0,1-.47-.69,2.39,2.39,0,0,1-.15-.86h1.41a1,1,0,0,0,1.1,1.16,1.13,1.13,0,0,0,.8-.28,1.16,1.16,0,0,0,.29-.88h1.41a2.14,2.14,0,0,1-.62,1.55A2.51,2.51,0,0,1,448.36,42.93Z"/><path class="cls-2" d="M457.85,52.5a4.72,4.72,0,0,1-1.73-.3A3.54,3.54,0,0,1,454,50a5.39,5.39,0,0,1-.29-1.82,5.09,5.09,0,0,1,.3-1.81,3.77,3.77,0,0,1,.84-1.35,3.66,3.66,0,0,1,1.33-.85,4.92,4.92,0,0,1,1.78-.3,5.54,5.54,0,0,1,1.4.17,3,3,0,0,1,1.06.49v1.26a3.91,3.91,0,0,0-1.14-.5,5.23,5.23,0,0,0-1.31-.17,2.74,2.74,0,0,0-2.14.76,3.36,3.36,0,0,0-.67,2.3,3.47,3.47,0,0,0,.65,2.32,2.63,2.63,0,0,0,2.08.75,4.77,4.77,0,0,0,1.39-.19,5.34,5.34,0,0,0,1.14-.47v1.26a4.94,4.94,0,0,1-1.08.46A5.25,5.25,0,0,1,457.85,52.5Z"/><path class="cls-2" d="M465.61,45.23v7.11H464.2V45.23h-2.6V44h6.67v1.2Z"/><path class="cls-2" d="M469.9,44H473a4.16,4.16,0,0,1,2.28.52,1.83,1.83,0,0,1,.76,1.63,1.73,1.73,0,0,1-.37,1.17,2.08,2.08,0,0,1-1.07.64,1.83,1.83,0,0,1,1.78,2,2.21,2.21,0,0,1-.26,1.1,2.07,2.07,0,0,1-.7.74,3.09,3.09,0,0,1-1.08.42,7.33,7.33,0,0,1-1.37.13H469.9Zm1.41,1.2v2.26h1.57a2.5,2.5,0,0,0,1.28-.29.9.9,0,0,0,.49-.83.93.93,0,0,0-.43-.9,2.58,2.58,0,0,0-1.23-.24Zm0,3.38v2.53H473a4.92,4.92,0,0,0,.8-.06,1.94,1.94,0,0,0,.63-.2,1,1,0,0,0,.4-.38,1.1,1.1,0,0,0,.15-.59,1.06,1.06,0,0,0-.5-1,3,3,0,0,0-1.48-.29Z"/><path class="cls-2" d="M479.9,50.42,484.33,44h1.42v8.31h-1.4V46l-4.42,6.37h-1.44V44h1.41Z"/><path class="cls-2" d="M494.67,51.64l-.44.27a4.66,4.66,0,0,1-.62.28,5.23,5.23,0,0,1-.83.22,5.52,5.52,0,0,1-1,.09,4.22,4.22,0,0,1-3.19-1.14,4.44,4.44,0,0,1-1.08-3.18,5.09,5.09,0,0,1,.29-1.81,3.75,3.75,0,0,1,.83-1.35,3.56,3.56,0,0,1,1.24-.85,4.07,4.07,0,0,1,1.57-.3,3.87,3.87,0,0,1,1.6.31,2.85,2.85,0,0,1,1.16.89,3.51,3.51,0,0,1,.63,1.47,6,6,0,0,1,0,2h-5.86a2.89,2.89,0,0,0,.8,2,3,3,0,0,0,2.15.67,4.43,4.43,0,0,0,1.64-.27,6.54,6.54,0,0,0,1.16-.6Zm-3.3-6.52a2.36,2.36,0,0,0-1.57.56,2.72,2.72,0,0,0-.83,1.7h4.46a2.06,2.06,0,0,0-.52-1.71A2.17,2.17,0,0,0,491.37,45.12Z"/><path class="cls-2" d="M166.52,52.5a6.6,6.6,0,0,1-2.32-.4,5,5,0,0,1-1.78-1.16,5.18,5.18,0,0,1-1.15-1.86,7.31,7.31,0,0,1-.4-2.47,7.84,7.84,0,0,1,.37-2.48,5,5,0,0,1,1.09-1.85,4.7,4.7,0,0,1,1.77-1.16,6.58,6.58,0,0,1,2.39-.4,7.42,7.42,0,0,1,2,.25,6.15,6.15,0,0,1,1.44.58V43a5.28,5.28,0,0,0-1.66-.69,8.42,8.42,0,0,0-1.85-.22,3.76,3.76,0,0,0-3,1.13,5.13,5.13,0,0,0-1,3.4,4.9,4.9,0,0,0,1,3.41,4.07,4.07,0,0,0,3.1,1.12,6.21,6.21,0,0,0,1.72-.24,5,5,0,0,0,1.61-.82v1.44a4.45,4.45,0,0,1-1.35.67A6.38,6.38,0,0,1,166.52,52.5Z"/><path class="cls-2" d="M175.42,52.5a4.36,4.36,0,0,1-1.59-.29,3.53,3.53,0,0,1-1.27-.84,3.86,3.86,0,0,1-.84-1.35,5.79,5.79,0,0,1,0-3.68,3.86,3.86,0,0,1,.84-1.35,3.63,3.63,0,0,1,1.27-.83,4.36,4.36,0,0,1,1.59-.29,4.42,4.42,0,0,1,1.6.29,3.63,3.63,0,0,1,1.27.83,4,4,0,0,1,.85,1.35,5.62,5.62,0,0,1,0,3.68,4,4,0,0,1-.85,1.35,3.53,3.53,0,0,1-1.27.84A4.42,4.42,0,0,1,175.42,52.5Zm0-1.25a2.7,2.7,0,0,0,1-.19,2.18,2.18,0,0,0,.82-.56,2.53,2.53,0,0,0,.55-1,5,5,0,0,0,0-2.73,2.53,2.53,0,0,0-.55-1,2.18,2.18,0,0,0-.82-.56,2.7,2.7,0,0,0-1-.19,2.63,2.63,0,0,0-1,.19,2.15,2.15,0,0,0-.81.56,2.8,2.8,0,0,0-.53,1,5,5,0,0,0,0,2.73,2.8,2.8,0,0,0,.53,1,2.15,2.15,0,0,0,.81.56A2.63,2.63,0,0,0,175.42,51.25Z"/><path class="cls-2" d="M188.65,48.18a5,5,0,0,1-.31,1.84,4,4,0,0,1-.85,1.35,3.53,3.53,0,0,1-1.27.84,4.42,4.42,0,0,1-1.6.29,4.25,4.25,0,0,1-1.62-.3,3.32,3.32,0,0,1-1.26-.9,4.44,4.44,0,0,1-.83-1.54,7.5,7.5,0,0,1-.29-2.19c0-.69,0-1.36.06-2a8.64,8.64,0,0,1,.29-1.75,4.9,4.9,0,0,1,.65-1.45,3.38,3.38,0,0,1,1.14-1.08,3.54,3.54,0,0,1,.83-.36,8.6,8.6,0,0,1,.88-.19,8.46,8.46,0,0,1,.88-.08l.88,0a5.65,5.65,0,0,0,1.08-.16,3.26,3.26,0,0,0,.76-.3v1.28a2.29,2.29,0,0,1-.74.31,8.3,8.3,0,0,1-1,.15l-1.67.12a3.53,3.53,0,0,0-1.39.36,2.46,2.46,0,0,0-1.13,1.34,7.33,7.33,0,0,0-.4,2.1,3.1,3.1,0,0,1,3.13-1.92,3.81,3.81,0,0,1,1.47.28,3.33,3.33,0,0,1,1.18.83,3.73,3.73,0,0,1,.79,1.33A5.35,5.35,0,0,1,188.65,48.18Zm-4,3.07a2.7,2.7,0,0,0,1-.19,2.18,2.18,0,0,0,.82-.56,2.53,2.53,0,0,0,.55-1,5,5,0,0,0,0-2.73,2.53,2.53,0,0,0-.55-1,2.18,2.18,0,0,0-.82-.56,2.7,2.7,0,0,0-1-.19,2.46,2.46,0,0,0-1.83.74,3.11,3.11,0,0,0-.73,2.28,4.38,4.38,0,0,0,.19,1.38,2.71,2.71,0,0,0,.54,1,2,2,0,0,0,.8.56A2.63,2.63,0,0,0,184.62,51.25Z"/><path class="cls-2" d="M196.55,49.57a2.88,2.88,0,0,1-.25,1.25,2.23,2.23,0,0,1-.72.86,3.14,3.14,0,0,1-1.11.5,6,6,0,0,1-1.39.16h-2.67V44h1.41v2.9h1.36a4.35,4.35,0,0,1,2.48.62A2.31,2.31,0,0,1,196.55,49.57Zm-4.73-1.44v3h1.26a2.82,2.82,0,0,0,1.48-.35,1.23,1.23,0,0,0,.57-1.14,1.32,1.32,0,0,0-.51-1.17,2.55,2.55,0,0,0-1.44-.35Zm7.34,4.21h-1.41V44h1.41Z"/><path class="cls-2" d="M204.81,45.23v7.11H203.4V45.23h-2.61V44h6.68v1.2Z"/><path class="cls-2" d="M210.5,50.42,214.94,44h1.42v8.31H215V46l-4.41,6.37H209.1V44h1.4Z"/><path class="cls-2" d="M225.27,51.64c-.11.08-.26.17-.43.27a5.33,5.33,0,0,1-.62.28,5.51,5.51,0,0,1-1.87.31,4.22,4.22,0,0,1-3.19-1.14,4.44,4.44,0,0,1-1.09-3.18,5.09,5.09,0,0,1,.3-1.81,3.88,3.88,0,0,1,.82-1.35,3.7,3.7,0,0,1,1.25-.85,4,4,0,0,1,1.57-.3,3.87,3.87,0,0,1,1.6.31,2.85,2.85,0,0,1,1.16.89,3.5,3.5,0,0,1,.62,1.47,5.93,5.93,0,0,1,0,2h-5.86a2.85,2.85,0,0,0,.8,2,3,3,0,0,0,2.14.67,4.53,4.53,0,0,0,1.65-.27,6.42,6.42,0,0,0,1.15-.6ZM222,45.12a2.36,2.36,0,0,0-1.57.56,2.67,2.67,0,0,0-.83,1.7H224a2.06,2.06,0,0,0-.53-1.71A2.13,2.13,0,0,0,222,45.12Z"/><line class="cls-3" x1="133" y1="62.5" x2="252.5" y2="62.5"/><path class="cls-2" d="M133,64.69a2.19,2.19,0,1,1,2.19-2.19A2.19,2.19,0,0,1,133,64.69Z"/><polygon class="cls-2" points="251.51 65.89 257.37 62.5 251.51 59.11 251.51 65.89"/></g></svg>